PathFileType	4	(X/Y/Z)	Patient4_TMGait_0pt5_02_right_41.trc.trc
DataRate	CameraRate	NumFrames	NumMarkers	Units	OrigDataRate	OrigDataStartFrame	OrigNumFrames
74.468085106383	74.468085106383	7	33	mm	74.468085106383	1	       141
Frame#	Time	Sacral			L.Shoulder			Chest			R.Shoulder			Neck			R.ASIS			L.ASIS			R.Thigh.Superior			R.Thigh.Lateral			R.Thigh.Inferior			R.Patella			L.Thigh.Superior			L.Thigh.Lateral			L.Thigh.Inferior			L.Patella			L.Shank.Superior			L.Shank.Lateral			L.Shank.Inferior			R.Shank.Superior			R.Shank.Lateral			R.Shank.Inferior			R.Heel			R.Midfoot.Superior			R.Midfoot.Lateral			R.Toe			L.Heel			L.Midfoot.Lateral			L.Midfoot.Superior			L.Toe			L.Elbow			L.Wrist			R.Elbow			R.Wrist			
		X1	Y1	Z1	X2	Y2	Z2	X3	Y3	Z3	X4	Y4	Z4	X5	Y5	Z5	X6	Y6	Z6	X7	Y7	Z7	X8	Y8	Z8	X9	Y9	Z9	X10	Y10	Z10	X11	Y11	Z11	X12	Y12	Z12	X13	Y13	Z13	X14	Y14	Z14	X15	Y15	Z15	X16	Y16	Z16	X17	Y17	Z17	X18	Y18	Z18	X19	Y19	Z19	X20	Y20	Z20	X21	Y21	Z21	X22	Y22	Z22	X23	Y23	Z23	X24	Y24	Z24	X25	Y25	Z25	X26	Y26	Z26	X27	Y27	Z27	X28	Y28	Z28	X29	Y29	Z29	X30	Y30	Z30	X31	Y31	Z31	X32	Y32	Z32	X33	Y33	Z33	

1	53.540000000000	683.961990553699	1013.069825631426	430.113697125469	871.193913393247	1434.688364237371	241.231760989089	969.327227320397	1367.161095753269	405.996547763292	882.881855343478	1445.510678743448	577.057691139533	869.526860443876	1499.273612283099	390.603091010084	905.240169155673	949.964477461866	550.589090526074	899.892958906588	962.502143231759	276.863902767409	989.106059453349	779.188812155367	520.208394329464	949.469811166428	658.254438378398	592.462649692219	1039.569716723190	619.714872949613	513.112597331070	1058.786761809974	505.498753145983	534.395254587482	946.646652569197	751.705320560131	312.676581236381	858.732604621867	636.993469327362	255.795531235152	938.339340449152	559.555250939766	325.304227873935	936.430709989815	490.312500702712	337.960220983575	911.969643522632	419.434835548473	329.501977835591	826.871510720307	302.540949055196	276.660211239472	874.908992941853	194.441879199754	354.782131304476	983.030840338366	430.489842411504	541.167832839633	861.765086851727	389.822175192603	600.191469297469	847.747654374478	281.060795694953	551.739913133212	647.913274894588	222.626561301041	520.697487984228	813.109329837774	158.199308147331	565.636871382713	704.075745368201	166.362247346875	599.268877439131	872.817099951762	46.282333834207	602.970227100234	745.721069096089	37.896669715713	394.889791490803	823.399962838730	35.028928618864	317.112366473305	904.857623645550	96.122463790377	346.935372467528	1034.898882701363	44.314153085350	324.922802042189	895.158573172374	1081.536652361681	116.601421070876	1024.704508622231	853.590484110862	124.285855300124	880.344030874893	1094.381651544015	693.155670588174	1017.932938046636	872.060390994566	668.411052861855	
2	53.553428571429	682.704910084650	1013.425831773640	428.575061746784	871.960666003568	1435.180034971332	240.748242730182	968.812264673669	1367.352168436499	406.150534754147	881.210742834195	1445.352307204696	576.738607890974	869.007950578777	1499.526021659253	390.266515635947	904.199057310557	950.642746731157	550.026953658665	900.774958553223	963.275130903267	275.744500492654	989.354117931264	781.356015056585	519.557890761789	951.189246872905	660.218625342367	592.279729535128	1041.149230474756	622.385377224357	512.508407464417	1062.328125855109	509.359237335994	534.050300309788	944.075361604188	750.874503448644	312.348704011135	855.240159971856	636.865979004580	255.087652098833	933.826942616638	558.791438083724	324.734642822414	931.199420384107	489.602994618909	337.460940569195	906.523139176946	418.950849954968	329.093963439356	821.006800383279	302.401532085673	276.296077843567	868.238811495926	194.177157064182	354.648917223007	989.269423626414	432.603106194252	541.236744487088	870.498237884426	387.112776735876	601.001589112364	860.755241677508	277.978514701455	552.617393152227	663.799564700818	211.219222957457	522.858194036286	831.415935345737	153.932059329706	566.612698852633	722.704019780830	157.518206634884	601.064605218023	895.985471525045	44.935843641447	603.568999705184	738.580269730453	37.923960840947	394.886107826204	816.258673056439	35.020131837274	317.103136184525	897.747546896023	96.067190318862	346.902515046696	1027.784119563830	44.181482103867	324.919514845580	900.493191528471	1083.658653346518	113.650981643937	1041.615528201200	863.797705245353	121.456582185649	868.208285014327	1095.567482727370	694.334050341417	987.453499447118	865.084323588191	675.620543262879	
3	53.566857142857	681.464033877003	1013.772180050123	427.077355816153	872.726882368003	1435.631514467971	240.291610144751	968.319200047446	1367.510808662105	406.321278081017	879.579954970250	1445.181491379103	576.448432305979	868.526649390342	1499.752002630531	389.947530033836	903.155206659211	951.270922366245	549.484961948054	901.553897944611	963.967752996200	274.693223006573	989.514439550031	783.406845323520	518.919728736043	952.771837730821	662.089036498990	592.114152841313	1042.545118837546	624.904413242531	511.908584780982	1065.661094006234	513.119371825634	533.726384358268	941.559938048894	750.039045776414	312.019537443245	851.780584017418	636.730381441829	254.405143765879	929.365769427963	558.020719117534	324.178482390027	926.018098640866	488.893146739444	336.984034795401	901.130250914928	418.461629346845	328.703618526513	815.186815614329	302.260440019142	275.944730688641	861.613656908396	193.908500830638	354.525306079253	995.365615385336	434.630299479284	541.343441287349	879.178720193008	384.270309440697	601.856630321579	873.807932314372	274.803394394936	553.548007450931	679.898413122273	199.591637369115	525.053596798843	849.883296567004	149.633026283520	567.654015951905	741.541859155389	148.550053323477	602.907197421018	919.356436199162	43.670152530912	604.246501096600	731.480665759554	37.950321769885	394.880661299030	809.156526126358	35.011307793436	317.094908694782	890.674237349562	96.010879478713	346.875596737500	1020.708781840696	44.050077412152	324.917370469814	905.723688371361	1085.736314234069	110.749999969146	1058.303104468199	874.075952064144	118.677254986901	856.000829224234	1096.841299798449	695.529281913616	957.181711048738	858.618993566462	682.645992467787	
4	53.580285714286	680.260884587355	1014.101451277928	425.658246524549	873.499091923937	1436.007092443821	239.896270680286	967.872205007335	1367.608997855574	406.534100355591	878.031187061932	1444.993635669151	576.215641771394	868.120838703727	1499.927275890963	389.671552180324	902.113769126775	951.802000022101	548.995914232343	902.154740621701	964.513089479756	273.782207297556	989.496130965675	785.210854911544	518.330866023122	954.051323858559	663.756612350093	591.999224053221	1043.566625258370	627.110095922269	511.348673464184	1068.550325133768	516.659096829735	533.455269378689	939.151108416028	749.196168639326	311.706254375661	848.393006201465	636.581822199754	253.776654122653	925.001793506884	557.240489333984	323.657718533735	920.935078963392	488.185814002222	336.553947291061	895.840770350585	417.964639414441	328.350508552387	809.458062887955	302.118724569449	275.617015554713	855.082091911904	193.634733282169	354.419741231851	1001.142686008741	436.489087922196	541.520355929102	887.725844312075	381.202181969322	602.787209100469	886.887392514597	271.509141804412	554.554181166075	696.374573269394	187.664098516802	527.279417895511	868.575539426202	145.360704817785	568.784224717925	760.726825531428	139.453137560240	604.795475036595	942.992630613412	42.653700291151	605.018760787211	724.469935327835	37.975518720109	394.871534462965	802.139156116468	35.002288035466	317.088330980818	883.684079750473	95.953086628550	346.858397605121	1013.718487749806	43.921191586578	324.917890801637	910.737592345033	1087.723061343625	107.966352811664	1074.475104720501	884.473363651038	116.017350463254	843.714805900059	1098.313050946220	696.730782978120	927.446213515626	853.161228502425	689.273908465472	
5	53.593714285714	679.117919326071	1014.405782865667	424.345404199087	874.287372677548	1436.280989345673	239.594157616680	967.491047901806	1367.626961075343	406.815751757755	876.593890790983	1444.788453743234	576.064556558086	867.821608907058	1500.033545968790	389.463368308176	901.081448087724	952.200303781347	548.594190873875	902.540431987034	964.869744450758	273.067275394957	989.219839510232	786.656414803173	517.831784780385	954.871328650339	665.124881301543	591.968291357788	1044.047591121776	628.865723576453	510.873475719239	1070.794767131938	519.880555892430	533.270569692722	936.879694171200	748.340442910805	311.430504647513	845.098642002601	636.417440437031	253.225653367360	920.753277308181	556.447600832368	323.193398565011	915.970551656604	487.482692331783	336.190464793080	890.672847586872	417.457570686175	328.050968456234	803.837596057465	301.977654038871	275.319964523479	848.662585779996	193.354987311679	354.338204538430	1006.456125877420	438.118877666997	541.796578748237	896.092560685517	377.837041225540	603.819277215508	900.004782367828	268.093753363428	555.648133686235	713.421618251679	175.387125854766	529.523817742946	887.583250770554	141.195730943796	570.006905378952	780.428571961716	130.248232918546	606.715418152295	966.982985630125	42.077518701265	605.875299087031	717.564236570535	38.000141718835	394.856082457357	795.221173553059	34.993005462740	317.083606792285	876.792092462343	95.893546316503	346.853373207167	1006.827415974831	43.795595058565	324.922489698894	915.457887622730	1089.587402179662	105.356259411249	1089.914204953128	895.061555362433	113.536033215132	831.324268575293	1100.095329496644	697.920289465357	898.467375414837	849.104622019537	695.333268652416	
6	53.607142857143	678.059615282777	1014.676301005822	423.156393175814	875.103910958092	1436.439630695558	239.412477756116	967.189808383161	1367.555289425123	407.191978432802	875.284592624003	1444.570802802184	576.012988764267	867.650175569810	1500.060225672497	389.345471818405	900.066495509416	952.443854106397	548.312767975296	902.716303842549	965.025000873497	272.584012940902	988.626982972673	787.659271372620	517.465298123461	955.099877897322	666.117665401406	592.053280904542	1043.863898572259	630.070835790657	510.535143555640	1072.243534360699	522.711354946362	533.204786707723	934.756751630539	747.465824936672	311.218157491808	841.904370659316	636.237042927911	252.769088512289	916.615477271480	555.640056877506	322.804642135550	911.121785050707	486.785060337405	335.907475669456	885.619262533787	416.939391822541	327.816828621862	798.320046004379	301.838997195024	275.056534843987	842.351294273845	193.069434496616	354.283640782522	1011.197603513589	439.484108728590	542.193291297790	904.253049405715	374.140073410949	604.967571204170	913.170812619133	264.589255468570	556.825630451007	731.204759696358	162.777499394401	531.760867574978	906.971863380344	137.244027205151	571.301040427596	800.787785442996	121.001768416504	608.634334235353	991.378856266456	42.137699618437	606.774302113144	710.757282034076	38.025474497198	394.831538976662	788.395701961994	34.983536993816	317.080468430072	869.991392096487	95.832222486776	346.861275862306	1000.027827078313	43.673646660088	324.932290425339	919.842087518046	1091.312630438478	102.964032038612	1104.470460966444	905.909063227128	111.281416581605	818.813233952334	1102.288861678229	699.069989228745	870.389787016849	846.703043178717	700.701712781400	
7	53.620571428571	677.112067878711	1014.902959375822	422.100193331023	875.961938874065	1436.481101240311	239.372388516163	966.976525089097	1367.394487364754	407.685650835216	874.108100765945	1444.350159169296	576.071258584306	867.616465033360	1500.004360335447	389.336843922807	899.078206435738	952.524161969762	548.180782860107	902.722491343871	964.990283224686	272.349344865908	987.684726546791	788.166177578569	517.274880485324	954.640411241684	666.682864781227	592.283005714991	1042.943374811315	630.665866719134	510.388921307208	1072.802611495777	525.103997153181	533.285784720446	932.776483667877	746.567180543655	311.098203784447	838.807355414802	636.043030697752	252.417174555672	912.567446977927	554.817864776646	322.507779541778	906.369831773888	486.093989742273	335.712703501624	880.655597351254	416.410779083160	327.654879908993	792.885358615859	301.705186991280	274.826109047520	836.129599941879	192.779619459533	354.255964032728	1015.294397137597	440.572588081195	542.720402117015	912.189720655385	370.118089793736	606.231128253795	926.371827551329	261.061254387079	558.062978974467	749.815882438954	149.932946815002	533.947278475839	926.743782844153	133.629841614308	572.621984970858	821.868885128170	111.829420588857	610.499172521732	1016.149295099242	43.012607403406	607.645011791235	704.028876118499	38.053170295237	394.795864984378	781.643295997974	34.974093378604	317.078260215568	863.262228661572	95.769265421403	346.881108700102	993.299128895188	43.555312422399	324.948031000805	923.876404347268	1092.894041726745	100.822848620140	1118.049234493575	917.062558841150	109.290662830462	806.195245236854	1104.970722404227	700.143547788785	843.312372098826	846.061151444314	705.305203894088	
